<svg width="50" height="50" viewBox="0 0 50 50" xmlns="http://www.w3.org/2000/svg">
    <path id="b" fill="#e6e6e6" d="m25.01,0c-6.8,0-7.64.03-10.31.16-2.07.04-4.13.44-6.07,1.16-1.67.63-3.18,1.61-4.43,2.88-1.27,1.24-2.26,2.75-2.88,4.42-.74,1.96-1.13,4-1.17,6.08-.13,2.67-.16,3.51-.16,10.31s.03,7.64.16,10.31c.04,2.07.44,4.13,1.16,6.07.63,1.67,1.61,3.18,2.88,4.42,1.24,1.27,2.76,2.26,4.43,2.88,1.94.73,4,1.11,6.07,1.16,2.67.13,3.51.16,10.31.16s7.64-.03,10.31-.16c2.07-.04,4.13-.44,6.07-1.16,3.36-1.3,6.03-3.95,7.31-7.31.73-1.94,1.11-4,1.16-6.07.13-2.67.16-3.51.16-10.31s-.03-7.64-.16-10.31c-.04-2.07-.44-4.13-1.16-6.07-.63-1.67-1.61-3.18-2.88-4.42-1.24-1.27-2.76-2.26-4.43-2.88-1.94-.73-4-1.11-6.07-1.16-2.64-.14-3.5-.17-10.29-.17Zm0,4.5c6.68,0,7.47.03,10.11.14,1.58.01,3.16.31,4.64.87,2.18.84,3.91,2.57,4.75,4.75.56,1.48.84,3.05.87,4.64.11,2.64.14,3.43.14,10.11s-.03,7.47-.16,10.11c-.03,1.58-.33,3.15-.87,4.64-.4,1.08-1.04,2.07-1.87,2.88-.81.83-1.8,1.46-2.88,1.86-1.5.56-3.07.84-4.65.87-2.66.11-3.44.14-10.12.14s-7.48-.03-10.12-.16c-1.6-.03-3.17-.33-4.67-.88-1.09-.4-2.07-1.04-2.87-1.87-.84-.8-1.48-1.78-1.87-2.87-.56-1.5-.84-3.07-.87-4.65-.1-2.63-.13-3.44-.13-10.09s.03-7.48.13-10.13c.03-1.58.33-3.17.87-4.65.39-1.1,1.04-2.08,1.88-2.88.8-.84,1.78-1.48,2.87-1.87,1.48-.56,3.04-.86,4.63-.87,2.66-.1,3.44-.13,10.12-.13l.1.06h-.03Zm0,7.66c-7.1,0-12.85,5.75-12.85,12.85s5.75,12.85,12.85,12.85,12.85-5.75,12.85-12.85h0c0-7.09-5.75-12.85-12.85-12.85h0Zm0,21.17c-4.61,0-8.34-3.73-8.34-8.34s3.73-8.34,8.34-8.34,8.34,3.73,8.34,8.34h0c0,4.6-3.73,8.34-8.34,8.34h0Zm16.36-21.68c0,1.66-1.34,3-3,3s-3-1.34-3-3,1.34-3,3-3h0c1.66,0,3,1.34,3,3Z" />
</svg>
