<svg width="50" height="50" viewBox="0 0 50 50" xmlns="http://www.w3.org/2000/svg">
    <path fill="#e6e6e6" d="m25,.06C11.23.06.06,11.23.06,25s11.17,24.94,24.94,24.94,24.94-11.17,24.94-24.94S38.77.06,25,.06c0,0,0,0,0,0Zm11.44,35.97c-.45.73-1.41.96-2.14.52-5.86-3.58-13.23-4.39-21.91-2.4-.84.19-1.67-.33-1.86-1.17-.19-.84.33-1.67,1.17-1.86,9.5-2.17,17.65-1.24,24.22,2.78.73.45.96,1.41.52,2.14Zm3.05-6.79c-.56.91-1.76,1.2-2.67.64-6.7-4.12-16.92-5.31-24.85-2.91-1.03.31-2.11-.27-2.43-1.3-.31-1.03.27-2.11,1.3-2.43,9.06-2.75,20.32-1.42,28.02,3.31.91.56,1.2,1.76.64,2.67h0Zm.26-7.07c-8.04-4.77-21.3-5.21-28.97-2.88-1.23.37-2.54-.32-2.91-1.55-.37-1.23.32-2.54,1.55-2.91,8.81-2.67,23.45-2.16,32.71,3.34,1.11.66,1.47,2.09.82,3.2-.66,1.11-2.09,1.47-3.2.82h0Z" />
</svg>
