<svg width="50" height="50" viewBox="0 0 50 50" xmlns="http://www.w3.org/2000/svg">
    <path fill="#e6e6e6" d="m48.95,12.97c-.58-2.15-2.27-3.84-4.42-4.42-3.9-1.05-19.53-1.05-19.53-1.05,0,0-15.64,0-19.53,1.05-2.15.58-3.84,2.27-4.42,4.42-1.05,3.9-1.05,12.03-1.05,12.03,0,0,0,8.14,1.05,12.03.58,2.15,2.27,3.84,4.42,4.42,3.9,1.05,19.53,1.05,19.53,1.05,0,0,15.64,0,19.53-1.05,2.15-.58,3.84-2.27,4.42-4.42,1.05-3.9,1.05-12.03,1.05-12.03,0,0,0-8.14-1.05-12.03Zm-28.75,19.63v-15.15l13.12,7.58-13.12,7.58Z" />
</svg>
