<svg width="50" height="50" viewBox="0 0 50 50" xmlns="http://www.w3.org/2000/svg">
    <path fill="#e6e6e6" d="m.57,27.13c-.1,0-.19.08-.2.2l-.37,2.78.37,2.73c.01.12.1.2.2.2s.18-.08.2-.19h0s0,0,0,0l.43-2.73-.43-2.78c-.02-.11-.1-.2-.2-.2Zm2.06-1.52c-.02-.12-.1-.2-.21-.2s-.19.08-.21.2c0,0-.49,4.49-.49,4.49l.49,4.39c.01.12.1.2.21.2s.19-.08.21-.2l.56-4.39-.56-4.49Zm7.75-4.14c-.2,0-.37.17-.38.37l-.39,8.26.39,5.34c.01.21.18.37.38.37s.37-.17.38-.37h0s.44-5.34.44-5.34l-.44-8.26c-.01-.21-.18-.37-.38-.37Zm-4.01,2.87c-.15,0-.28.12-.29.29l-.44,5.47.44,5.3c.01.16.14.29.29.29s.28-.12.29-.29l.5-5.3-.5-5.48c-.01-.16-.14-.29-.29-.29Zm8.08,11.48c.25,0,.45-.2.46-.46l.38-5.25-.38-11c-.01-.26-.21-.46-.46-.46s-.46.2-.46.46c0,0-.34,11-.34,11l.34,5.25c0,.26.21.46.46.46Zm8.34.02c.34,0,.63-.28.63-.63h0s0,0,0,0l.27-5.1-.27-12.7c0-.35-.29-.63-.63-.63s-.63.28-.63.63l-.24,12.7s.24,5.11.24,5.11c0,.35.29.63.63.63Zm-4.2-.02c.3,0,.54-.24.55-.55h0s.33-5.17.33-5.17l-.33-11.08c0-.31-.25-.55-.55-.55s-.54.24-.55.55l-.29,11.08.29,5.17c0,.3.25.54.55.54Zm-10.22-.05c.18,0,.32-.14.34-.33l.47-5.34-.47-5.08c-.01-.19-.16-.33-.34-.33s-.32.14-.34.33l-.42,5.08.42,5.34c.01.19.16.33.34.33Zm-3.98-.29c.13,0,.24-.1.25-.24l.53-5.13-.53-5.33c-.02-.14-.12-.25-.25-.25s-.24.1-.25.25c0,0-.47,5.33-.47,5.33l.47,5.13c.01.14.12.25.25.25Zm16.29-16.63c-.33,0-.59.26-.59.59l-.26,10.67.26,5.14c0,.33.27.59.59.59s.58-.26.59-.59h0s.3-5.13.3-5.13l-.3-10.68c0-.33-.27-.59-.59-.59Zm-8.28,16.98c.22,0,.41-.18.42-.42l.41-5.3-.41-10.15c-.01-.23-.2-.42-.42-.42s-.41.18-.42.42c0,0-.37,10.15-.37,10.15l.37,5.31c0,.23.19.42.42.42Zm4.61-.5h0s.35-5.22.35-5.22l-.35-11.37c0-.28-.23-.5-.51-.5s-.5.22-.51.5l-.32,11.37.32,5.22c0,.28.23.5.51.5s.5-.22.51-.5h0Zm26.84-11.77c-.84,0-1.65.17-2.38.48-.49-5.54-5.14-9.89-10.81-9.89-1.39,0-2.74.27-3.93.74-.46.18-.59.36-.59.72v19.52c0,.38.3.69.66.73.02,0,16.94.01,17.05.01,3.4,0,6.15-2.75,6.15-6.15s-2.75-6.15-6.15-6.15Zm-18.97-7.97c-.37,0-.67.3-.68.68l-.28,13.85.28,5.03c0,.37.31.67.68.67s.67-.3.68-.68h0s.3-5.02.3-5.02l-.3-13.86c0-.37-.31-.67-.68-.67Z" />
</svg>
