<svg width="50" height="50" viewBox="0 0 50 50" xmlns="http://www.w3.org/2000/svg">
    <path fill="#e6e6e6" d="m50,13.85c0-.5,0-1.01-.02-1.51-.03-1.1-.09-2.2-.29-3.28-.2-1.1-.52-2.12-1.03-3.12-.5-.98-1.15-1.88-1.93-2.66s-1.68-1.43-2.66-1.93c-1-.51-2.02-.83-3.12-1.03-1.08-.19-2.19-.26-3.28-.29-.5-.01-1.01-.02-1.51-.02C35.55,0,34.96,0,34.36,0H15.64C15.04,0,14.45,0,13.85,0c-.5,0-1.01,0-1.51.02-1.1.03-2.2.09-3.28.29-1.1.2-2.12.52-3.12,1.03-.98.5-1.88,1.15-2.66,1.93s-1.43,1.68-1.93,2.66c-.51,1-.83,2.02-1.03,3.12C.12,10.14.05,11.25.02,12.34c-.01.5-.02,1.01-.02,1.51,0,.6,0,1.19,0,1.79v18.72C0,34.96,0,35.55,0,36.15c0,.5,0,1.01.02,1.51.03,1.1.09,2.2.29,3.28.2,1.1.52,2.12,1.03,3.12.5.98,1.15,1.88,1.93,2.66.78.78,1.68,1.43,2.66,1.93,1,.51,2.02.83,3.12,1.03,1.08.19,2.19.26,3.28.29.5.01,1.01.02,1.51.02.6,0,1.19,0,1.79,0h18.72c.6,0,1.19,0,1.79,0,.5,0,1.01,0,1.51-.02,1.1-.03,2.2-.09,3.28-.29,1.1-.2,2.12-.52,3.12-1.03.98-.5,1.88-1.15,2.66-1.93.78-.78,1.43-1.68,1.93-2.66.51-1,.83-2.02,1.03-3.12.19-1.08.26-2.19.29-3.28.01-.5.02-1.01.02-1.51,0-.6,0-1.19,0-1.79V15.64h0c0-.6,0-1.19,0-1.79Zm-13.4,18.69c0,.63,0,1.21-.14,1.84-.13.62-.36,1.19-.73,1.72-.36.52-.83.95-1.37,1.27-.55.32-1.12.51-1.74.63-1.15.23-1.94.28-2.68.14-.71-.14-1.32-.47-1.8-.92-.72-.66-1.17-1.55-1.26-2.48-.11-1.09.25-2.25,1.07-3.11.41-.43.93-.78,1.62-1.04.72-.28,1.52-.45,2.75-.7.32-.07.65-.13.97-.2.43-.09.79-.19,1.08-.55.3-.36.3-.8.3-1.24v-11.01c0-.84-.38-1.07-1.18-.92-.58.11-12.93,2.6-12.93,2.6-.7.17-.94.4-.94,1.26v16.13c0,.63-.03,1.21-.17,1.84-.13.62-.36,1.19-.73,1.72-.36.52-.83.95-1.37,1.27-.55.32-1.12.52-1.74.64-1.15.23-1.94.28-2.68.14-.71-.14-1.32-.48-1.8-.92-.72-.66-1.14-1.55-1.23-2.48-.11-1.09.22-2.25,1.04-3.11.41-.43.93-.78,1.62-1.04.72-.28,1.52-.45,2.75-.7.32-.07.65-.13.97-.2.43-.09.79-.19,1.08-.55.29-.36.33-.78.33-1.22V12.75c0-.25.02-.42.03-.5.06-.39.22-.73.5-.97.23-.2.54-.33.93-.42h0s14.86-3,14.86-3c.13-.03,1.2-.22,1.32-.23.8-.07,1.26.46,1.25,1.31v23.59Z" />
</svg>
