<svg width="50" height="50" viewBox="0 0 50 50" xmlns="http://www.w3.org/2000/svg">
    <path fill="#e6e6e6" d="m38.47,0H11.53C5.16,0,0,5.16,0,11.53v26.95c0,6.37,5.16,11.53,11.53,11.53h26.95c6.37,0,11.53-5.16,11.53-11.53V11.53c0-6.37-5.16-11.53-11.53-11.53Zm-.21,19.25c.67-.71,1.55-1.05,2.73-1.05.5,0,1.05.13,1.6.25.08.04.17.13.21.17s.08.17.08.29v.42c0,.21-.08.29-.21.29-.08,0-.13,0-.25-.04-.38-.13-.8-.17-1.22-.17-.84,0-1.43.21-1.8.63-.38.42-.55,1.09-.59,2.01v.21c0,.88.17,1.55.55,1.97.38.42.97.63,1.76.63.42,0,.88-.08,1.34-.21.08-.04.17-.04.21-.04.13,0,.21.08.21.29v.42c0,.13,0,.25-.04.29-.04.08-.13.13-.25.17-.46.21-1.05.29-1.68.29-1.18,0-2.06-.34-2.69-1.01-.63-.67-.92-1.64-.92-2.9s.34-2.27.97-2.94Zm-3.95-3.74c.17-.17.38-.25.67-.25s.55.08.71.25c.17.13.21.38.21.63s-.08.46-.25.63-.38.25-.67.25-.5-.08-.67-.25c-.17-.13-.25-.38-.25-.63s.08-.46.25-.63Zm1.43,3.15v6.97c0,.21-.08.29-.29.29h-.88c-.21,0-.29-.08-.29-.29v-6.97c0-.21.08-.29.29-.29h.88c.21,0,.29.13.29.29Zm-8.23,6.21c0-.17.04-.25.17-.25.08,0,.21.04.38.08.67.21,1.34.29,2.06.29.46,0,.84-.13,1.09-.29.25-.17.38-.46.38-.8,0-.25-.04-.42-.21-.59s-.42-.29-.84-.46l-1.26-.46c-1.09-.42-1.64-1.13-1.64-2.1,0-.63.25-1.18.76-1.55s1.18-.59,1.97-.59c.63,0,1.26.13,1.89.34.13.04.21.08.25.17.04.08.08.17.08.29v.42c0,.17-.08.25-.21.25-.04,0-.17-.04-.34-.08-.5-.17-1.05-.25-1.59-.25-.97,0-1.43.34-1.43.97,0,.29.08.46.25.63.13.17.46.34.92.5l1.18.46c.59.21,1.01.5,1.26.8.25.34.38.71.38,1.22,0,.71-.25,1.26-.8,1.68-.55.42-1.22.63-2.1.63s-1.59-.13-2.27-.42c-.13-.04-.21-.13-.25-.17-.04-.08-.08-.17-.08-.29v-.42Zm-7.81-6.21c0-.21.08-.29.29-.29h.88c.21,0,.29.08.29.29v4.74c0,.55.08.92.29,1.18.21.25.55.38,1.01.38.71,0,1.43-.25,2.14-.71v-5.58c0-.17.08-.29.34-.29h.88c.21,0,.29.08.29.29v6.93c0,.21-.08.29-.29.29h-.63c-.13,0-.21,0-.25-.04-.08-.04-.13-.08-.13-.21l-.08-.5c-.92.67-1.89,1.01-2.85,1.01-.71,0-1.26-.21-1.64-.59-.38-.38-.55-.97-.55-1.68v-5.2Zm-13.01.04c0-.21.08-.29.29-.29h.67c.08,0,.17,0,.21.04.08.04.13.08.13.21l.08.46c.92-.63,1.85-.97,2.77-.97s1.55.34,1.89,1.05c.97-.71,1.97-1.05,2.94-1.05.71,0,1.22.21,1.6.59s.55.92.55,1.64v5.25c0,.21-.08.29-.29.29h-.88c-.21,0-.29-.08-.29-.29v-4.83c0-.5-.13-.84-.29-1.09-.17-.25-.46-.38-.88-.38-.71,0-1.43.21-2.18.67v5.62c0,.21-.08.29-.29.29h-.88c-.21,0-.29-.08-.29-.29v-4.83c0-.5-.13-.84-.29-1.09-.17-.25-.46-.38-.88-.38-.76,0-1.47.25-2.18.67v5.67c0,.21-.08.29-.29.29h-.88c-.21,0-.29-.08-.29-.29v-6.97Zm33.41,13.77c-4.07,3.02-9.99,4.62-15.11,4.62-7.14,0-13.6-2.64-18.47-7.05-.29-.29-.13-.63.17-.63.08,0,.17.04.25.08,5.25,3.06,11.75,4.91,18.47,4.91,4.53,0,9.53-.97,14.1-2.9.71-.29,1.3.46.59.97Zm1.18,2.98c-.38.25-.67.13-.55-.25.5-1.22,1.6-3.99,1.09-4.66-.55-.67-3.48-.34-4.79-.17-.38.04-.46-.29-.08-.55,1.22-.84,2.81-1.13,4.16-1.13,1.26,0,2.27.25,2.48.5.46.59-.13,4.41-2.31,6.25Z" />
</svg>
