<svg width="180" height="100" viewBox="0 0 180 100" xmlns="http://www.w3.org/2000/svg">
    <path d="m56.27,36.21c-.66-2.47-2.6-4.41-5.07-5.07-4.47-1.2-22.38-1.2-22.38-1.2,0,0-17.92,0-22.38,1.2-2.47.66-4.41,2.6-5.07,5.07C.17,40.68.17,50,.17,50c0,0,0,9.32,1.2,13.79.66,2.47,2.6,4.41,5.07,5.07,4.47,1.2,22.38,1.2,22.38,1.2,0,0,17.92,0,22.38-1.2,2.47-.66,4.41-2.6,5.07-5.07,1.2-4.47,1.2-13.79,1.2-13.79,0,0,0-9.32-1.2-13.79Zm-33.18,22.38v-17.19l14.88,8.59-14.88,8.59h0Zm46.48-2.57l-6.43-23.23h5.61l2.25,10.53c.58,2.59,1,4.81,1.27,6.64h.17c.19-1.31.61-3.51,1.27-6.6l2.33-10.57h5.61l-6.51,23.23v11.14h-5.57v-11.14h0Zm13.77,10.41c-1.13-.76-1.94-1.95-2.42-3.57-.48-1.61-.72-3.75-.72-6.43v-3.65c0-2.7.27-4.88.82-6.51.55-1.64,1.4-2.83,2.56-3.58,1.16-.75,2.68-1.13,4.57-1.13s3.34.38,4.47,1.15c1.12.76,1.94,1.96,2.46,3.58.52,1.63.78,3.79.78,6.49v3.65c0,2.68-.25,4.83-.76,6.45-.5,1.63-1.33,2.82-2.46,3.57s-2.67,1.13-4.61,1.13-3.56-.38-4.69-1.15Zm6.35-3.93c.31-.82.47-2.16.47-4.01v-7.82c0-1.8-.16-3.12-.47-3.95-.32-.83-.87-1.25-1.66-1.25s-1.31.42-1.62,1.25c-.32.83-.47,2.15-.47,3.95v7.82c0,1.86.15,3.2.45,4.01.3.82.84,1.23,1.64,1.23s1.34-.41,1.66-1.23Zm24.43,4.67h-4.42l-.49-3.08h-.12c-1.2,2.32-3,3.48-5.41,3.48-1.66,0-2.9-.55-3.69-1.64s-1.19-2.8-1.19-5.12v-18.77h5.65v18.44c0,1.12.12,1.92.37,2.4.25.48.66.72,1.23.72.49,0,.96-.15,1.41-.45.45-.3.78-.68,1-1.15v-19.95h5.65v25.12h.01Zm15.36-29.83h-5.61v29.83h-5.53v-29.83h-5.61v-4.55h16.76v4.55h0Zm13.64,29.83h-4.42l-.49-3.08h-.12c-1.2,2.32-3,3.48-5.41,3.48-1.66,0-2.9-.55-3.69-1.64-.79-1.09-1.19-2.8-1.19-5.12v-18.77h5.65v18.44c0,1.12.12,1.92.37,2.4.25.48.66.72,1.23.72.49,0,.96-.15,1.41-.45s.78-.68,1-1.15v-19.95h5.65v25.12h.01Zm18.71-21.11c-.34-1.58-.9-2.73-1.66-3.44-.76-.71-1.82-1.07-3.16-1.07-1.04,0-2.01.29-2.91.88-.9.59-1.6,1.36-2.09,2.32h-.04v-13.23h-5.45v35.65h4.67l.58-2.38h.12c.44.85,1.09,1.51,1.97,2.01.87.49,1.84.74,2.91.74,1.91,0,3.32-.88,4.22-2.64.9-1.76,1.35-4.51,1.35-8.26v-3.98c0-2.81-.17-5.01-.51-6.59h0Zm-5.18,10.25c0,1.83-.08,3.26-.23,4.3s-.4,1.78-.76,2.21c-.35.44-.83.66-1.43.66-.47,0-.9-.11-1.29-.33-.4-.22-.72-.55-.96-.98v-14.26c.19-.68.52-1.24.99-1.68.46-.44.97-.66,1.51-.66.58,0,1.02.23,1.33.67.32.45.53,1.21.66,2.27.12,1.07.18,2.58.18,4.55v3.24h0Zm13.72,1.45c0,1.61.05,2.82.14,3.63s.29,1.39.59,1.76.76.55,1.39.55c.84,0,1.43-.33,1.74-.99.32-.66.49-1.75.51-3.28l4.88.29c.03.22.04.52.04.9,0,2.32-.64,4.06-1.91,5.2-1.27,1.15-3.07,1.72-5.39,1.72-2.79,0-4.74-.87-5.86-2.62s-1.68-4.45-1.68-8.11v-4.39c0-3.77.58-6.52,1.74-8.26s3.15-2.6,5.96-2.6c1.94,0,3.43.35,4.47,1.07,1.04.71,1.77,1.82,2.19,3.32s.64,3.58.64,6.23v4.3h-9.47v1.27h.02Zm.72-11.84c-.29.35-.48.93-.58,1.74-.09.81-.14,2.03-.14,3.67v1.8h4.14v-1.8c0-1.61-.06-2.83-.17-3.67-.11-.83-.31-1.42-.59-1.76-.29-.34-.73-.51-1.33-.51s-1.05.18-1.33.54h0Z" />
</svg>
