<svg width="174" height="100" viewBox="0 0 174 100" xmlns="http://www.w3.org/2000/svg">
    <path d="m27.15,22.96C12.22,22.96.11,35.06.11,50s12.11,27.04,27.04,27.04,27.04-12.1,27.04-27.04-12.1-27.04-27.04-27.04h0Zm12.4,38.99c-.48.79-1.52,1.05-2.32.56-6.35-3.88-14.34-4.76-23.75-2.61-.91.21-1.81-.36-2.02-1.27-.21-.91.36-1.81,1.27-2.02,10.3-2.35,19.13-1.34,26.26,3.02.79.49,1.05,1.52.56,2.32Zm3.31-7.36c-.61.99-1.91,1.3-2.9.69-7.27-4.47-18.35-5.76-26.94-3.15-1.11.34-2.29-.29-2.63-1.4s.29-2.29,1.41-2.63c9.82-2.98,22.03-1.54,30.37,3.59.99.61,1.3,1.91.69,2.9h0Zm.28-7.67c-8.71-5.18-23.09-5.65-31.41-3.13-1.34.41-2.75-.35-3.15-1.68-.4-1.34.35-2.75,1.69-3.15,9.55-2.9,25.43-2.34,35.46,3.62,1.2.71,1.6,2.27.88,3.47-.71,1.2-2.27,1.6-3.46.88h0Zm30.53.99c-4.67-1.11-5.5-1.89-5.5-3.54,0-1.55,1.46-2.59,3.63-2.59s4.19.79,6.38,2.42c.06.05.15.07.23.06s.15-.06.2-.12l2.28-3.21c.09-.13.07-.31-.06-.42-2.61-2.09-5.54-3.11-8.97-3.11-5.04,0-8.56,3.02-8.56,7.35,0,4.64,3.04,6.28,8.29,7.55,4.47,1.03,5.22,1.89,5.22,3.43,0,1.71-1.52,2.77-3.98,2.77-2.72,0-4.95-.92-7.44-3.07-.06-.05-.15-.08-.22-.07-.08,0-.16.05-.21.11l-2.56,3.04c-.11.13-.09.32.03.43,2.89,2.58,6.45,3.95,10.29,3.95,5.43,0,8.94-2.97,8.94-7.56,0-3.88-2.31-6.02-8-7.41h.01Zm20.29-4.6c-2.35,0-4.28.93-5.88,2.83v-2.14c0-.17-.14-.31-.3-.31h-4.18c-.17,0-.3.14-.3.31v23.76c0,.17.14.31.3.31h4.18c.17,0,.3-.14.3-.31v-7.5c1.59,1.79,3.53,2.66,5.88,2.66,4.37,0,8.8-3.37,8.8-9.8s-4.42-9.81-8.8-9.81h0Zm3.94,9.81c0,3.28-2.02,5.57-4.91,5.57s-5.01-2.39-5.01-5.57,2.16-5.57,5.01-5.57,4.91,2.34,4.91,5.57h0Zm16.21-9.81c-5.63,0-10.05,4.34-10.05,9.88s4.38,9.77,9.98,9.77,10.08-4.32,10.08-9.84-4.4-9.81-10.01-9.81h0Zm0,15.4c-3,0-5.26-2.41-5.26-5.6s2.18-5.53,5.19-5.53,5.29,2.41,5.29,5.6-2.2,5.53-5.22,5.53Zm22.04-15.02h-4.6v-4.7c0-.17-.14-.31-.3-.31h-4.18c-.17,0-.31.14-.31.31v4.7h-2.01c-.17,0-.3.14-.3.31v3.59c0,.17.14.31.3.31h2.01v9.3c0,3.75,1.87,5.66,5.56,5.66,1.5,0,2.74-.31,3.91-.98.1-.05.15-.15.15-.26v-3.42c0-.1-.05-.2-.15-.26-.09-.06-.2-.06-.3,0-.8.4-1.58.59-2.45.59-1.34,0-1.94-.61-1.94-1.97v-8.64h4.6c.17,0,.3-.14.3-.31v-3.59c0-.17-.13-.31-.3-.31h0Zm16.03.02v-.58c0-1.7.65-2.46,2.11-2.46.87,0,1.57.17,2.36.43.1.03.2.02.27-.04.08-.06.13-.15.13-.25v-3.52c0-.13-.08-.25-.22-.29-.83-.25-1.89-.5-3.47-.5-3.86,0-5.9,2.17-5.9,6.29v.88h-2.01c-.17,0-.31.14-.31.31v3.61c0,.17.14.31.31.31h2.01v14.34c0,.17.14.31.31.31h4.18c.17,0,.31-.14.31-.31v-14.34h3.9l5.98,14.34c-.68,1.5-1.35,1.8-2.26,1.8-.74,0-1.51-.22-2.31-.66-.07-.04-.16-.05-.24-.02s-.15.09-.18.16l-1.42,3.11c-.07.15,0,.32.13.4,1.48.8,2.81,1.14,4.46,1.14,3.09,0,4.79-1.44,6.3-5.31l7.25-18.74c.04-.09.03-.2-.03-.28-.05-.08-.15-.13-.25-.13h-4.35c-.13,0-.25.08-.29.21l-4.46,12.73-4.88-12.74c-.05-.12-.16-.2-.28-.2h-7.15Zm-9.29-.02h-4.18c-.17,0-.31.14-.31.31v18.24c0,.17.14.31.31.31h4.18c.17,0,.31-.14.31-.31v-18.23c0-.17-.14-.31-.31-.31h0Zm-2.07-8.3c-1.66,0-3,1.34-3,3s1.34,3,3,3,3-1.34,3-3-1.34-3-3-3Z" />
</svg>
