<svg width="63" height="36" viewBox="0 0 63 36" xmlns="http://www.w3.org/2000/svg">
    <path d="m33.89,22.83c.7-1.86,1.06-3.86,1.06-5.97,0-2.37-.45-4.58-1.34-6.6-.89-2.01-2.13-3.78-3.71-5.28-1.59-1.51-3.43-2.68-5.51-3.51-2.09-.83-4.27-1.26-6.75-1.26s-4.76.43-6.86,1.28c-2.12.84-3.94,2.02-5.5,3.55-1.57,1.53-2.76,3.3-3.63,5.34-.85,2.04-1.28,4.21-1.28,6.65s.44,4.69,1.3,6.73c.87,2.02,2.08,3.81,3.62,5.32,1.54,1.5,3.34,2.68,5.39,3.51,2.05.83,4.26,1.24,6.63,1.24,1.56,0,3.06-.19,4.53-.56,1.44-.36,2.83-.87,4.14-1.54l3.64,4.06h.01s.02-.01.02-.01l4.79-4.2-3.45-3.82c1.24-1.42,2.21-3.07,2.9-4.93Zm-7.4-3.08c-.24.83-.54,1.59-.92,2.26l-3.89-4.4-4.39,3.82,3.88,4.57c-.54.26-1.11.43-1.74.55-.61.13-1.21.19-1.81.19h-.03c-1.71-.01-3.24-.41-4.58-1.23-1.34-.82-2.4-1.94-3.14-3.41-.76-1.45-1.14-3.15-1.14-5.07,0-1.44.22-2.75.66-3.88.45-1.17,1.06-2.15,1.85-2.97.79-.8,1.73-1.44,2.81-1.88,1.09-.44,2.28-.67,3.56-.67,1.72,0,3.26.37,4.66,1.14,1.39.77,2.5,1.85,3.31,3.26.82,1.41,1.24,3.07,1.24,4.99,0,.99-.1,1.9-.33,2.73Zm13.35,14.26V.46h22.55v8.06h-13.73v6.02h12.25v7.71h-12.25v11.78h-8.83Z" />
</svg>
