<svg width="114" height="100" viewBox="0 0 114 100" xmlns="http://www.w3.org/2000/svg">
    <path d="m75.75,62.27c-.77.51-1.92.9-3.33.9-2.17,0-4.22-.26-6.27-.9-.51-.13-.9-.26-1.15-.26-.38,0-.51.26-.51.77v1.28c0,.38.13.64.26.9.13.13.38.38.77.51,2.05.9,4.35,1.28,6.91,1.28,2.69,0,4.73-.64,6.39-1.92s2.43-2.94,2.43-5.12c0-1.53-.38-2.69-1.15-3.71-.77-.9-2.05-1.79-3.84-2.43l-3.58-1.41c-1.41-.51-2.43-1.02-2.81-1.53-.51-.51-.77-1.02-.77-1.92,0-1.92,1.41-2.94,4.35-2.94,1.66,0,3.33.26,4.86.77.51.13.9.26,1.02.26.38,0,.64-.26.64-.77v-1.28c0-.38-.13-.64-.26-.9-.13-.26-.38-.38-.77-.51-1.92-.64-3.84-1.02-5.76-1.02-2.43,0-4.48.64-6.01,1.79s-2.3,2.81-2.3,4.73c0,2.94,1.66,5.12,4.99,6.39l3.84,1.41c1.28.51,2.05.9,2.56,1.41.51.51.64,1.02.64,1.79,0,1.02-.38,1.92-1.15,2.43h0Zm-20.08-18.42v17.01c-2.17,1.41-4.35,2.17-6.52,2.17-1.41,0-2.43-.38-3.07-1.15s-.9-1.92-.9-3.58v-14.45c0-.64-.26-.9-.9-.9h-2.69c-.64,0-.9.26-.9.9v15.86c0,2.17.51,3.96,1.66,5.12,1.15,1.15,2.81,1.79,4.99,1.79,2.94,0,5.88-1.02,8.7-3.07l.26,1.53c0,.38.13.51.38.64.13.13.38.13.77.13h1.92c.64,0,.9-.26.9-.9v-21.1c0-.64-.26-.9-.9-.9h-2.69c-.77,0-1.02.38-1.02.9h.01Zm-24.3,22.13h2.69c.64,0,.9-.26.9-.9v-15.99c0-2.17-.51-3.84-1.66-4.99s-2.69-1.79-4.86-1.79c-2.94,0-6.01,1.02-8.95,3.2-1.02-2.17-2.94-3.2-5.76-3.2s-5.63,1.02-8.44,2.94l-.26-1.41c0-.38-.13-.51-.38-.64-.13-.13-.38-.13-.64-.13H1.96c-.64,0-.9.26-.9.9v21.23c0,.64.26.9.9.9h2.69c.64,0,.9-.26.9-.9v-17.27c2.17-1.28,4.35-2.05,6.65-2.05,1.28,0,2.17.38,2.69,1.15.51.77.9,1.79.9,3.33v14.71c0,.64.26.9.9.9h2.69c.64,0,.9-.26.9-.9v-17.14c2.3-1.41,4.48-2.05,6.65-2.05,1.28,0,2.17.38,2.69,1.15s.9,1.79.9,3.33v14.71c0,.64.26.9.9.9h-.05Zm69.7,17.01c-13.94,5.88-29.16,8.82-42.97,8.82-20.46,0-40.29-5.63-56.28-14.96-.26-.13-.51-.26-.77-.26-.9,0-1.41,1.02-.51,1.92,14.84,13.43,34.53,21.49,56.28,21.49,15.6,0,33.64-4.86,46.04-14.07,2.17-1.53.38-3.84-1.79-2.94Zm-.38-34.92c1.15-1.28,2.94-1.92,5.5-1.92,1.28,0,2.56.13,3.71.51.38.13.51.13.77.13.38,0,.64-.26.64-.9v-1.28c0-.38-.13-.77-.26-.9-.13-.13-.38-.38-.64-.51-1.66-.38-3.33-.77-4.86-.77-3.58,0-6.27,1.02-8.31,3.2-1.92,2.05-2.94,5.12-2.94,8.95s.9,6.78,2.81,8.82c1.92,2.05,4.6,3.07,8.19,3.07,1.92,0,3.71-.26,5.12-.9.38-.13.64-.26.77-.51.13-.13.13-.51.13-.9v-1.28c0-.64-.26-.9-.64-.9-.13,0-.38,0-.64.13-1.41.38-2.81.64-4.09.64-2.43,0-4.22-.64-5.37-1.92-1.15-1.28-1.66-3.33-1.66-6.01v-.64c.13-2.81.64-4.86,1.79-6.14l-.02.03Zm5.76,46.94c6.65-5.63,8.44-17.27,7.03-19.06-.64-.77-3.71-1.53-7.55-1.53-4.09,0-8.95.9-12.66,3.45-1.15.77-.9,1.79.26,1.66,3.96-.51,12.92-1.53,14.58.51,1.53,2.05-1.79,10.49-3.33,14.2-.38,1.15.51,1.53,1.66.77h.01Zm-17.78-52.05h-2.69c-.64,0-.9.26-.9.9v21.23c0,.64.26.9.9.9h2.69c.64,0,.9-.26.9-.9v-21.23c0-.51-.26-.9-.9-.9Zm.77-8.7c-.51-.51-1.28-.77-2.17-.77s-1.53.26-2.05.77-.77,1.15-.77,1.92.26,1.53.77,1.92c.51.51,1.15.77,2.05.77s1.53-.26,2.05-.77.77-1.15.77-1.92-.13-1.53-.64-1.92h-.01Z" />
</svg>
