<svg width="168" height="100" viewBox="0 0 168 100" xmlns="http://www.w3.org/2000/svg">
    <path d="m70.27,69.65v-27.21h-.2l-10.88,27.21h-4.23l-10.88-27.21h-.2v27.21h-5.04v-36.88h6.45l11.69,29.43h.2l11.69-29.43h6.65v36.88h-5.25Zm33.66,0h-5.24v-4.64h-.2c-1.41,3.22-4.23,5.04-8.26,5.04-5.84,0-9.27-3.83-9.27-10.08v-17.33h5.44v16.33c0,4.03,2.02,6.25,5.64,6.25,4.03,0,6.25-2.82,6.25-7.05v-15.52h5.44l.2,27.01h0Zm14.91-27.41c6.25,0,10.08,3.43,10.28,8.46h-5.04c-.4-2.62-2.22-4.23-5.24-4.23s-5.04,1.41-5.04,3.63c0,1.61,1.21,2.82,4.03,3.43l4.23,1.01c5.44,1.21,7.46,3.43,7.46,7.26,0,4.84-4.43,8.26-10.68,8.26-6.65,0-10.68-3.22-11.09-8.46h5.44c.4,2.82,2.42,4.23,5.64,4.23s5.24-1.41,5.24-3.63c0-1.81-1.01-2.82-3.83-3.43l-4.23-1.01c-5.04-1.21-7.46-3.63-7.46-7.66,0-4.64,4.03-7.86,10.28-7.86h0Zm14.71-6.65c0-1.81,1.41-3.22,3.22-3.22s3.22,1.41,3.22,3.22-1.41,3.22-3.22,3.22-3.22-1.41-3.22-3.22h0Zm.4,7.05h5.44v27.01h-5.44v-27.01Zm28.42,9.27c-.6-2.82-2.62-5.24-6.25-5.24-4.23,0-7.05,3.63-7.05,9.27s2.82,9.27,7.05,9.27c3.43,0,5.44-1.81,6.25-5.04h5.24c-.6,5.64-5.04,9.67-11.49,9.67-7.66,0-12.5-5.24-12.5-13.91s4.84-13.91,12.5-13.91c6.85,0,10.88,4.43,11.49,9.67l-5.24.2h0v.02ZM22.09,36.39c-1.41,1.61-3.63,3.02-5.84,2.82-.4-2.42.81-4.84,2.02-6.25,1.41-1.81,3.83-3.02,5.84-3.02.2,2.22-.6,4.64-2.02,6.45h0Zm2.02,3.22c1.21,0,4.84.4,7.26,4.03-.2.2-4.23,2.62-4.23,7.66,0,6.05,5.24,8.06,5.24,8.06,0,.2-.81,2.82-2.62,5.64-1.61,2.42-3.43,4.84-6.05,4.84s-3.43-1.61-6.45-1.61-4.03,1.61-6.45,1.61c-2.62,0-4.64-2.62-6.25-5.04-3.43-5.04-6.05-14.11-2.42-20.15,1.61-3.02,4.84-5.04,8.06-5.04,2.62,0,5.04,1.81,6.45,1.81s4.23-2.02,7.46-1.81h0Z" />
</svg>
