<svg width="120" height="70" viewBox="0 0 120 70" xmlns="http://www.w3.org/2000/svg">
    <path fill="#010101" d="M64.93,44.37c1.36-3.61,2.05-7.49,2.05-11.58,0-4.6-.87-8.88-2.6-12.8-1.72-3.9-4.12-7.33-7.19-10.24-3.08-2.93-6.64-5.2-10.67-6.81-4.05-1.61-8.27-2.45-13.07-2.45s-9.22.83-13.29,2.48c-4.1,1.63-7.63,3.92-10.65,6.89-3.05,2.97-5.34,6.4-7.03,10.35-1.65,3.95-2.48,8.16-2.48,12.9s.85,9.1,2.52,13.05c1.69,3.92,4.03,7.39,7.01,10.32,2.98,2.9,6.46,5.2,10.44,6.81,3.97,1.61,8.25,2.41,12.84,2.41,3.02,0,5.92-.37,8.77-1.09,2.79-.7,5.48-1.69,8.02-2.99l7.05,7.87h.02l.04-.02,9.28-8.14-6.68-7.41c2.4-2.75,4.28-5.95,5.61-9.57h-.01ZM50.59,38.4c-.47,1.61-1.05,3.08-1.78,4.39l-7.53-8.54-8.5,7.41,7.51,8.86c-1.05.51-2.15.83-3.37,1.07-1.18.25-2.34.37-3.5.37h-.06c-3.31-.02-6.28-.8-8.87-2.39-2.59-1.59-4.65-3.77-6.08-6.62-1.47-2.81-2.21-6.11-2.21-9.83,0-2.79.42-5.33,1.27-7.52.87-2.27,2.05-4.17,3.58-5.76,1.53-1.56,3.35-2.79,5.44-3.64,2.11-.85,4.41-1.3,6.9-1.3,3.34,0,6.31.72,9.02,2.21,2.69,1.49,4.84,3.59,6.41,6.32,1.58,2.74,2.4,5.95,2.4,9.68,0,1.92-.2,3.68-.64,5.29ZM76.56,65.71V.99h43.44v15.55h-26.44v11.62h23.6v14.88h-23.6v22.73h-17.01l.02-.04h-.01Z" />
</svg>
