<svg width="585" height="175" viewBox="0 0 585 175" xmlns="http://www.w3.org/2000/svg">
    <path fill="#db2e2e" d="m2.7,144.9c-.16-1.05-.17-2.04,0-2.95s.03-2.02-.37-3.33c2-6.79,4.47-13.19,7.43-19.2,2.95-6,6.75-11.48,11.39-16.42.76-.8,1.35-1.61,1.77-2.41s.84-1.58,1.26-2.33.93-1.44,1.52-2.08c.59-.63,1.4-1.12,2.42-1.48,1.97-3.15,4.46-6.14,7.46-8.96s6.17-5.57,9.49-8.24,6.66-5.4,10.01-8.18c3.35-2.78,6.32-5.69,8.89-8.74,1.16.51,2.03.6,2.62.26.59-.33,1.23-.46,1.93-.37,1.14,1.69,2.47,2.79,3.97,3.29,1.5.51,3.05,1,4.65,1.49s3.12,1.14,4.57,1.95,2.65,2.02,3.58,3.65c-.67.1-.95.39-.82.86.12.47.32.98.6,1.53.28.55.46,1.06.53,1.54s-.32.79-1.18.92c.1.67.49.96,1.16.85s1.06.18,1.16.85c.09.58.04,1.05-.15,1.42-.19.37-.13.93.18,1.67-2.07,1.89-4.41,3.75-7.02,5.58-2.62,1.83-5.37,3.75-8.25,5.77s-5.79,4.16-8.73,6.43-5.82,4.8-8.63,7.59-5.61,5.83-8.4,9.11-5.43,6.71-7.92,10.28c-2.49,3.58-4.78,7.22-6.86,10.93s-3.79,7.29-5.12,10.74c.27.45.6.84.99,1.17s.72.72.99,1.17c3.68-.37,7.08-.92,10.21-1.65,3.13-.73,6.33-1,9.6-.82.34-.35.52-.77.54-1.26.02-.49.26-.87.71-1.14,6.42-1.68,12.35-3.7,17.78-6.06s10.96-4.76,16.57-7.2c-1.83-.4-3.45-.7-4.85-.87-.66-.49-.72-.99-.16-1.52s.99-1.06,1.3-1.6c-1.67-.63-3.12-1.58-4.35-2.87-1.23-1.28-2.12-3.06-2.67-5.34.58-.68.82-1.4.7-2.17s-.55-1.34-1.3-1.72c-.51-.12-.8-.07-.86.13-.07.21-.11.41-.13.61s-.08.41-.2.62c-.11.22-.38.26-.79.12-.07-1.07.04-1.97.32-2.7.28-.73.44-1.59.49-2.58l10.73-9.76c1.39.77,3.09,1.54,5.07,2.31,1.98.78,4.07,1.54,6.25,2.28,2.18.75,4.41,1.51,6.69,2.28,2.28.78,4.41,1.56,6.4,2.33,1.85.5,3.48,1.21,4.9,2.12s2.79,1.88,4.13,2.9c1.34,1.02,2.67,2.02,4,2.99s2.87,1.72,4.62,2.24c.04,1.57.33,2.8.87,3.7.53.9.8,2.04.82,3.41-1.32,3.55-3.1,6.64-5.34,9.3-2.24,2.66-4.85,5.05-7.81,7.17-2.96,2.13-6.18,4.03-9.66,5.69-3.48,1.67-7.06,3.3-10.74,4.9-3.68,1.6-7.38,3.25-11.1,4.95s-7.33,3.56-10.86,5.58c-1.63.25-3.02.52-4.15.79-1.14.27-2.22.59-3.24.94-1.03.36-2.05.71-3.08,1.06-1.03.36-2.16.68-3.39.96-.5-.02-.79.12-.89.43s-.28.58-.54.82c-1.88.58-3.58.99-5.11,1.23l-3.89.6c-1.35.21-2.71.62-4.09,1.22s-2.7.96-3.96,1.05c-8.7.95-15.94-1.08-21.72-6.08s-9.69-12.51-11.72-22.51c.02-.49-.12-.79-.43-.89-.31-.1-.58-.23-.8-.39l.02.04Zm195.86-7.66c-.32,1.72-.91,3.51-1.75,5.35-.84,1.85-1.91,3.54-3.2,5.06-1.29,1.53-2.78,2.86-4.47,4s-3.54,1.92-5.54,2.33c-1.29-.1-2.18-.28-2.66-.55-.48-.27-.99-.51-1.51-.72-.32-.15-.61-.27-.87-.38s-.5-.19-.7-.26l-1.84-.45.29-1.96c.07-.8-.07-1.39-.42-1.78-.35-.39-1.02-.9-2-1.53-.33-.24-.66-.49-1-.73-.33-.24-.62-.49-.85-.75l-2.87-2.36,3.73-1.61c2.29-1.04,3.77-2.15,4.42-3.33.65-1.18.69-3,.11-5.47-1.98-.09-3.59.11-4.84.6s-2.52,1.03-3.8,1.62c-1.65.75-3.34,1.42-5.07,2.03-1.72.61-3.64,1.08-5.75,1.4-.77.12-1.49.21-2.17.26-.68.06-1.41.1-2.19.12l-1.48-.07c-.36-1.03-.64-1.6-.85-1.71-.22-.11-.43-.25-.65-.41-.56-.41-1.16-.98-1.81-1.71-.65-.73-.93-1.75-.84-3.04-.61-.79-1.04-1.61-1.26-2.46-.4,1.24-.65,2.51-.74,3.8l-.35,1.53-1.4.51c-.18.13-.29.36-.33.71-.05.35-.05.62-.02.81l-.34,2.56c-.16.22-.33.42-.5.59s-.34.37-.5.59c-.06.89-.17,1.79-.32,2.7-.16.91-.32,1.77-.49,2.58-.29,1.32-.51,2.61-.66,3.86-.15,1.25-.09,2.45.18,3.58l-.33,1.67c-.39.65-.85,1.19-1.37,1.61-.52.43-1.05.83-1.58,1.2-.16.22-.4.43-.71.63-.32.2-.56.36-.74.48l-.19,1.65-1.68.55c-1.03.35-1.75.61-2.16.78-.42.16-.91.29-1.49.38l-1.46.08c-1.19-.7-2.11-1.27-2.77-1.71-.66-.44-1.41-.84-2.25-1.2-1.04-1.02-1.65-1.81-1.84-2.37-.18-.56-.36-1.07-.53-1.54-.28-.55-.47-1.01-.58-1.38-.11-.38-.27-.64-.49-.81l-2.14-1.44,1.38-1.54-.23-2.47c1.17-5.19,2.48-10.21,3.94-15.05s2.98-9.79,4.56-14.85c.53-1.65,1.04-3.3,1.52-4.95.48-1.65.99-3.3,1.52-4.95-.14-.27-.24-.6-.3-.99s-.03-.83.09-1.34c.8-1.79,1.44-3.39,1.91-4.79s.94-2.82,1.4-4.27c.52-1.75,1.06-3.45,1.64-5.12.58-1.66,1.37-3.4,2.36-5.23l2.15-1.36c.27-.14.59-.31.95-.52.36-.2.78-.34,1.26-.42l2.2-.05c2.49-1.66,4.58-3.78,6.24-6.34,1.67-2.56,3.31-5.59,4.94-9.09l1.13-2.24,2.05.86c.52.21,1.24.38,2.14.48.9.11,1.85.23,2.86.37,1.79.12,3.48.3,5.09.54s2.97.77,4.08,1.58c.81,1.45,1.33,2.55,1.54,3.3.21.75.48,1.5.79,2.24.54,1.59,1.05,3.18,1.55,4.77.49,1.6.94,3.39,1.35,5.39.73,1.56,1.39,3.1,1.97,4.63s1.14,3.09,1.68,4.68c.83,2.23,1.66,4.39,2.47,6.47.81,2.09,1.75,4.03,2.81,5.83.77-.12,1.25-.14,1.46-.08.45-.27.93-.49,1.44-.67.51-.18,1.1-.36,1.75-.57l1.56-.39.8,1.35c.17.47.72.87,1.66,1.22,1.26-.1,2.21.03,2.86.37.64.34,1.24.72,1.79,1.12.44.33.87.55,1.28.69l2.29.53-.82,2.34c-.69,1.88-1.81,3.74-3.34,5.6s-3.32,3.48-5.36,4.88c.18.56.34,1.1.47,1.62.13.52.33,1.05.62,1.6.54,1.59,1.04,3.23,1.5,4.93s.73,3.47.82,5.33l-.2.62v.05Zm-45.44-18.49c2.85-.64,5.43-1.25,7.75-1.86,2.31-.6,4.87-1.41,7.66-2.43-1.12-2.78-2.3-5.66-3.55-8.66s-2.54-5.97-3.88-8.91l-.64,1.57c-1.61,2.31-3.11,4.85-4.5,7.62-1.39,2.77-2.54,5.35-3.45,7.75-.44.95-.88,1.91-1.33,2.86s-.84,1.9-1.18,2.84c.56-.18,1.1-.32,1.63-.4s1.02-.21,1.49-.38h0Zm94.56,21.67c-2.55,1.28-5.35,2.59-8.38,3.95s-6.13,2.27-9.3,2.76c-4.8.74-8.78.12-11.93-1.85-.64-.98-1.19-1.63-1.63-1.96-.35-.34-.68-.71-.98-1.1-.31-.39-.57-.97-.78-1.72-1.36-1.16-2.51-2.58-3.46-4.26-.95-1.67-1.68-3.42-2.21-5.26-.53-1.83-.87-3.72-1.02-5.66-.15-1.94-.12-3.81.09-5.61.13-.41.19-.81.18-1.21,0-.39,0-.83.02-1.33.15-1.59.33-3.14.54-4.65.21-1.51.62-2.84,1.22-4.02-.52-.8-.66-1.76-.44-2.88.22-1.11.5-2.14.85-3.08.78-3.85,1.43-7.12,1.95-9.81.52-2.68,1.07-5.35,1.64-7.99.96-4.57,1.84-9.08,2.63-13.52.79-4.44,1.38-9.2,1.78-14.27.69-.6,1.22-1.02,1.57-1.27.55-.28,1-.5,1.37-.65,1.86.6,4.01,1.13,6.43,1.59,2.43.46,4.41.57,5.95.34.84.36,1.38.65,1.61.86s.45.4.68.56c1.25,1.09,2.35,2.22,3.32,3.39.97,1.18,1.47,2.85,1.51,5-.44.95-.81,1.45-1.1,1.5-.18,2-.44,3.7-.76,5.13-.32,1.43-.67,2.85-1.03,4.29-.45,1.54-.85,3.08-1.21,4.61-.35,1.53-.56,3.38-.62,5.55-.31.54-.51,1.01-.59,1.42-.08.41-.19.86-.3,1.37-.12.51-.26,1.05-.41,1.61-.16.57-.45,1.08-.87,1.53.1,2.54-.05,4.63-.43,6.26-.39,1.63-.8,3.27-1.23,4.91-.72,2.96-1.32,5.9-1.81,8.83-.48,2.93-.55,6.18-.19,9.76.45-.26.89-.43,1.32-.5l1.22-.19c.86-.13,1.89-.14,3.09-.03,2.64-1.98,5.64-3.38,9.01-4.19,3.36-.81,6.71-1.53,10.06-2.14l4.03-.62c1.34-.21,2.58-.49,3.7-.87.94.35,1.53.53,1.78.54s.61-.02,1.09-.09c.67-.1,1.25-.14,1.75-.12,1.31.88,2.53,1.48,3.67,1.79,1.13.32,2.3.58,3.51.79,1.11.22,2.21.47,3.28.75s2.15.73,3.23,1.34l1.96,6.03c.8.76,1.18,1.29,1.13,1.59.12.77.01,1.38-.31,1.82l.53,1.54c-1.39.51-2.33,1-2.8,1.46-.47.47-.91.98-1.31,1.53-.75.21-1.3.35-1.63.4l-.94.14c-1.34.21-2.94.7-4.78,1.47-2.72-.46-5.48-.48-8.26-.05-1.06.16-2.15.38-3.29.65-1.14.27-2.27.55-3.41.82-1.12.37-2.28.7-3.46.98-1.19.28-2.4.52-3.65.71l-3.18,1.37v-.04Zm78.6-12.12c-2.55,1.28-5.35,2.59-8.38,3.95s-6.13,2.27-9.3,2.76c-4.8.74-8.78.12-11.93-1.85-.64-.98-1.19-1.63-1.63-1.96-.35-.34-.68-.71-.98-1.1-.31-.39-.57-.97-.78-1.72-1.36-1.16-2.51-2.58-3.46-4.26-.95-1.67-1.68-3.42-2.21-5.26-.53-1.83-.87-3.72-1.02-5.66s-.12-3.81.09-5.61c.13-.41.19-.81.18-1.21-.01-.39,0-.83.02-1.33.15-1.59.33-3.14.54-4.65.21-1.51.62-2.84,1.22-4.02-.52-.8-.66-1.76-.44-2.88.22-1.11.5-2.14.85-3.08.78-3.85,1.43-7.12,1.95-9.81.52-2.68,1.07-5.35,1.64-7.99.96-4.57,1.84-9.08,2.63-13.52s1.38-9.2,1.78-14.27c.69-.6,1.22-1.02,1.57-1.27.55-.28,1-.5,1.37-.65,1.86.6,4.01,1.13,6.43,1.59,2.43.46,4.41.57,5.95.34.84.36,1.38.65,1.61.86.23.21.45.4.68.56,1.25,1.09,2.35,2.22,3.32,3.39.97,1.18,1.47,2.85,1.51,5-.44.95-.81,1.45-1.1,1.5-.18,2-.44,3.7-.76,5.13s-.67,2.85-1.03,4.29c-.45,1.54-.85,3.08-1.21,4.61-.35,1.53-.56,3.38-.62,5.55-.31.54-.51,1.01-.59,1.42-.08.41-.19.86-.3,1.37-.12.51-.26,1.05-.41,1.61-.16.57-.45,1.08-.87,1.53.1,2.54-.05,4.63-.43,6.26-.39,1.63-.8,3.27-1.23,4.91-.72,2.96-1.32,5.9-1.81,8.83-.48,2.93-.55,6.18-.19,9.76.45-.26.89-.43,1.32-.5l1.22-.19c.86-.13,1.89-.14,3.09-.03,2.64-1.98,5.64-3.38,9.01-4.19,3.36-.81,6.71-1.53,10.06-2.14l4.03-.62c1.34-.21,2.58-.49,3.7-.87.94.35,1.53.53,1.78.54s.61-.02,1.09-.09c.67-.1,1.25-.14,1.75-.12,1.31.88,2.53,1.48,3.67,1.79,1.13.32,2.3.58,3.51.79,1.11.22,2.21.47,3.28.75s2.15.73,3.23,1.34l1.96,6.03c.8.76,1.18,1.29,1.13,1.59.12.77.01,1.38-.31,1.82l.53,1.54c-1.39.51-2.33,1-2.8,1.46-.47.47-.91.98-1.31,1.53-.75.21-1.3.35-1.63.4l-.94.14c-1.34.21-2.94.7-4.78,1.47-2.72-.46-5.48-.48-8.26-.05-1.06.16-2.15.38-3.29.65-1.14.27-2.27.55-3.41.82-1.12.37-2.28.7-3.46.98-1.19.28-2.4.52-3.65.71l-3.18,1.37v-.04Zm108.66-98.11c.2.66.3,1.16.31,1.5v.96c0,.3.02.61.07.95s.22.83.52,1.47c-1.51,3.57-3.5,6.16-5.95,7.77-2.46,1.61-5.18,2.91-8.17,3.91-2.99,1-6.05,2.04-9.17,3.11-3.13,1.07-6.12,2.81-9,5.22-1.32-.29-2.45-.11-3.38.52-.93.64-2.38,1.01-4.32,1.11-.49.66-1.14,1.18-1.97,1.56-.83.37-1.65.77-2.47,1.19.52.8.82,1.67.91,2.59.09.92.33,1.64.7,2.18,3.4-.23,7.11-.85,11.13-1.86,4.02-1.01,7.99-1.87,11.91-2.57.17.47.17.78,0,.96-.17.17-.18.45-.02.81.74.38,1.51.87,2.29,1.49.78.62,1.56,1.21,2.34,1.78.77.57,1.56,1.01,2.34,1.33.79.32,1.65.36,2.6.12.5.71.9,1.51,1.18,2.4.29.89.31,1.85.07,2.86-1.37,1.29-2.74,2.61-4.11,3.95s-2.82,2.57-4.37,3.69-3.21,2.09-5,2.91c-1.79.82-3.84,1.36-6.16,1.61l-1.08.17c-.24.04-.58-.06-1-.29-.7.6-1.75.91-3.17.93s-2.48.33-3.17.93c-1.13-.32-2.43-.34-3.91-.06s-2.83.31-4.04.11c-1.23,2.25-2.28,4.63-3.18,7.12-.89,2.5-1.62,5.11-2.18,7.85,3.34-.02,6.08-.25,8.22-.68s4.16-.91,6.04-1.45c1.88-.53,3.81-1.08,5.79-1.63,1.98-.55,4.51-1.01,7.6-1.39,1.76-1.35,3.93-2.4,6.52-3.14s4.92-1.67,7.01-2.78c.81.17,1.56.57,2.25,1.2s1.34,1.22,1.97,1.76c.62.54,1.26,1.01,1.91,1.4s1.4.47,2.25.24c.44.33.78.74,1,1.25s.42.99.59,1.46c.17.47.4.85.69,1.15s.72.36,1.28.17c-.95,3.39-2.23,6.07-3.85,8.04-1.61,1.97-3.55,3.57-5.82,4.8-2.27,1.23-4.83,2.32-7.68,3.25s-6,2.01-9.45,3.23c-.83.32-1.56.41-2.17.26-.61-.15-1.3-.17-2.07-.05-2.13.82-4.71,1.66-7.72,2.52-3.01.86-6.11,1.48-9.29,1.88-3.18.39-6.27.45-9.26.18-2.99-.28-5.54-1.18-7.64-2.73-.87-.55-1.5-1.27-1.88-2.14s-1.14-1.47-2.27-1.79c-.29-1.23-.69-2.59-1.22-4.09-.52-1.49-1.06-3.05-1.61-4.69-.55-1.63-1.02-3.26-1.41-4.87-.4-1.61-.55-3.11-.47-4.5.07-1.48.46-2.87,1.2-4.16.73-1.29.85-2.59.36-3.89.46-.17.71-.48.74-.92.03-.45.39-.67,1.07-.68.31-1.82.68-3.54,1.12-5.18.43-1.64.9-3.23,1.4-4.78.5-1.55.99-3.12,1.48-4.72.49-1.6.93-3.36,1.32-5.29-1.54-1.04-2.73-2.25-3.58-3.65-.85-1.39-1.54-2.81-2.06-4.25s-1-2.94-1.43-4.5c-.44-1.55-1.02-3.11-1.75-4.67.74-1.59,1.73-2.94,2.98-4.07s2.65-2.1,4.19-2.93,3.24-1.58,5.1-2.26c1.86-.68,3.81-1.42,5.85-2.23,3.64-1.84,6.93-3.33,9.85-4.47s5.81-2.15,8.67-3.03c2.86-.88,5.84-1.76,8.95-2.63,3.11-.87,6.62-2,10.53-3.39,1,.73,1.88,1.04,2.65.92.25-.92.67-1.26,1.25-1s.75-.04.53-.89c1.21,1.49,2.64,2.66,4.3,3.54,1.66.87,3.46,1.56,5.4,2.04l.02-.05Zm28.47,63.25c-.46,4-.95,7.05-1.46,9.14-.51,2.09-1.42,4.32-2.73,6.68-1.28,0-2.12.28-2.52.83-.41.55-.87,1.07-1.38,1.54-.83.32-1.46.42-1.87.29s-.78-.3-1.11-.49c-.33-.2-.72-.38-1.19-.55-.47-.17-1.14-.19-2-.06-.31-.74-.64-1.42-.98-2.06-.34-.63-1.03-.77-2.05-.42.07-.8.02-1.45-.16-1.97-.18-.51-.37-.97-.58-1.38-.21-.41-.4-.82-.56-1.24s-.2-.98-.11-1.68c-.48.07-.91-.2-1.31-.83-.39-.63-.83-1.25-1.32-1.86.02-1.77.06-3.45.11-5.03s.19-3.07.41-4.48.38-2.81.46-4.2-.28-2.76-1.08-4.11c.43.23.7.11.83-.35.13-.46.18-1.06.17-1.79-.02-.73-.08-1.46-.19-2.18s-.25-1.31-.42-1.78c.57-2.64.97-5.33,1.19-8.07.22-2.73.39-5.44.52-8.11.13-2.67.29-5.3.48-7.88.19-2.58.6-5,1.24-7.26,1.03-.35,2.22-.42,3.58-.18,1.36.23,2.24.66,2.63,1.29,2.2-2.3,4.05-4.97,5.54-8,1.5-3.03,3.05-6,4.67-8.9,1.62-2.9,3.49-5.55,5.63-7.94s5.05-4.07,8.73-5.03c2.14,1.14,4.5,2.28,7.08,3.4,2.58,1.13,4.82,2.77,6.73,4.93.83.27,1.54.57,2.13.92s1.31.71,2.15,1.07l.27,1.73c1.31.88,2.44,1.96,3.37,3.24.93,1.28,1.81,2.67,2.63,4.16l2.46,4.48c.82,1.49,1.72,2.9,2.71,4.22-.12.51-.15.93-.1,1.27s.18.69.38,1.05.38.73.54,1.1c.15.37.24.9.24,1.58.36,4.27-.48,7.88-2.53,10.85-2.05,2.97-4.67,5.56-7.86,7.77-3.2,2.21-6.67,4.2-10.43,5.96-3.76,1.76-7.12,3.55-10.07,5.39.06.38.25.55.59.5s.49.17.47.66c2.52,1.08,4.52,1.96,6,2.61,1.48.66,2.86,1.18,4.15,1.57s2.66.7,4.12.91c1.46.22,3.48.42,6.06.61s4.6.35,6.04.47,2.76.21,3.95.28c1.19.06,2.39.07,3.61.03s2.95-.13,5.19-.28c1,.73,1.9,1.65,2.71,2.75.81,1.11,1.4,2.24,1.78,3.41.38,1.17.6,2.32.68,3.43.07,1.12-.12,2.06-.6,2.82.14.27.37.36.7.26s.69-.13,1.09-.09c-.52.47-.92,1.03-1.22,1.66-.3.63-.59,1.27-.88,1.91-.3.64-.65,1.21-1.06,1.71-.41.51-1.04.87-1.89,1.1-2.8,1.61-6.53,2.26-11.19,1.95-4.67-.31-10.66-1.28-17.98-2.9-3.66-.81-6.65-1.55-8.96-2.23-2.32-.67-4.34-1.39-6.08-2.16-1.74-.76-3.34-1.62-4.82-2.57s-3.25-2.1-5.32-3.45v-.02Zm12.97-52.55c-.82,1.7-1.78,3.27-2.88,4.72s-2.15,2.91-3.15,4.39-1.86,3.09-2.57,4.82c-.72,1.73-1.1,3.68-1.16,5.85,3.3-.9,6.66-2.38,10.08-4.43,3.42-2.05,6.65-4,9.71-5.85-.84-2.91-2.25-5.15-4.21-6.72-1.96-1.56-3.9-2.49-5.81-2.79h0Zm83.28,14.42c-.58.68-1.05,1.47-1.41,2.35-.36.89-.71,1.8-1.05,2.74-.32,1.13-.69,2.22-1.12,3.27-.43,1.05-1.01,2.02-1.76,2.92-.26,1.51-.56,2.72-.92,3.6-.36.89-.98,1.94-1.87,3.16-.37,3.99-1.98,8.51-4.83,13.57.04.88-.1,1.76-.4,2.64-.31.88-.64,1.75-1,2.59-.15.32-.29.66-.43,1.02-.14.37-.24.65-.31.86l-.07,1.48c-.36.84-.79,1.6-1.27,2.26s-.93,1.27-1.34,1.83c-.15.32-.42.75-.83,1.31l-2.03,1.2c-7.15.12-12-2.96-14.54-9.25l-.08-1.46c.12-.51.21-1.04.27-1.59.06-.55.14-1.13.25-1.73.17-1.4.42-2.81.75-4.24.32-1.42.93-2.74,1.82-3.96.09-.7.35-1.85.8-3.44.44-1.59,1.25-4,2.42-7.23.99-2.51,1.76-4.49,2.32-5.96.56-1.46,1.02-2.61,1.38-3.46-1.2-1.39-2.56-2.6-4.1-3.64-1.62-2.2-3.05-4.34-4.31-6.41-1.25-2.07-2.25-3.93-3-5.58-.29-1.23-.6-2.27-.92-3.1-.33-.83-.66-1.72-1-2.65-.45-1.01-.85-2.03-1.21-3.06-.36-1.02-.62-2.11-.8-3.27-.58-.6-.98-1.22-1.17-1.88l.07-1.48c.18-.71.09-1.61-.27-2.69-.36-1.07-.78-2.16-1.24-3.27-.34-.93-.72-1.95-1.14-3.07-.42-1.11-.67-2.26-.75-3.42-.08-1.17.06-2.29.44-3.38.37-1.09,1.12-2.11,2.25-3.07l2.42-.52c.94.35,1.85.67,2.73.98.88.31,1.74.64,2.59,1,1.13.32,2.21.64,3.24.97,1.03.33,2.14.8,3.31,1.4l1.32,1.86,2.12,1.29.24,1.58c.15.37.29.89.39,1.56.19,1.25.5,1.99.93,2.21l.84,1.64c.21,1.34.55,2.59,1.02,3.75.47,1.16.94,2.24,1.39,3.25s.91,2.07,1.37,3.18c.47,1.11.71,2.35.72,3.72.53-.38.96-.79,1.28-1.23.16-.22.33-.39.51-.52.18-.12.35-.3.51-.52l6.72-12.83-.51-1.4,2.58-3.34c.65-.89,1.28-1.72,1.9-2.5.62-.78,1.1-1.59,1.47-2.44l1.41-1.4c2.33-5.27,6.24-8.92,11.72-10.95l1.97-.6.86,1.78c.55,1,1.49,1.83,2.82,2.51,1.33.68,2.73,1.3,4.19,1.86l1.43.66c.63.89.98,1.57,1.05,2.05s.09.92.06,1.32l.8,1.35c-.41,2.42-1.09,4.25-2.03,5.47-.94,1.23-1.87,2.35-2.79,3.38-.75.9-1.43,1.72-2.05,2.45-.62.74-1.05,1.61-1.29,2.63l-.83,1.31c-1.84,1.46-2.9,3.2-3.18,5.21l-.17,1.79-1.73.27c-.1.02-.29.22-.57.6s-.66,1.31-1.12,2.75c-.52,1.06-.91,1.76-1.15,2.09-.24.33-.45.61-.61.83-.04.4-.1.78-.19,1.13-.09.36-.2.79-.31,1.3-1.06,1.44-1.68,2.49-1.87,3.16s-.42,1.42-.69,2.24c-.27.83-.51,1.63-.74,2.4s-.66,1.6-1.31,2.49l-.39,2.27.02.05Z" />
</svg>
