<svg width="2560" height="300" viewBox="0 0 2560 300" xmlns="http://www.w3.org/2000/svg">
    <path fill="#051122" d="m1682.66,149.7v150.3h118.02l-118.02-150.3Zm548.66,0c-3.33-8.67-8.05-16.11-14.16-22.34-6.12-6.21-13.62-11.11-22.5-14.66-8.89-3.55-18.89-5.34-30-5.34h-15v140.67h15c11.33,0,21.44-1.78,30.33-5.33s16.39-8.45,22.5-14.67,10.78-13.61,14-22.17c3.22-8.55,4.83-17.94,4.83-28.16s-1.66-19.34-5-28h0Zm-1487.64-23.34l-29.34,83.67h58.67l-29.33-83.67h0ZM0,0v300h301.64c-11.47-4.52-22.57-10.49-33.3-17.97l28-52.67c9.78,8.67,19.45,15.12,29,19.34,9.56,4.22,19,6.33,28.34,6.33,10.66,0,18.61-2.44,23.83-7.33,5.22-4.89,7.83-10.45,7.83-16.67,0-3.78-.66-7.05-2-9.83-1.33-2.78-3.55-5.34-6.66-7.67-3.12-2.33-7.17-4.5-12.17-6.5s-11.06-4.22-18.17-6.67c-8.44-2.66-16.72-5.61-24.83-8.83s-15.33-7.5-21.67-12.83c-6.33-5.34-11.44-12.05-15.33-20.17-3.89-8.11-5.83-18.38-5.83-30.83s2.05-23.72,6.16-33.84c4.11-10.11,9.89-18.77,17.34-26,7.44-7.21,16.55-12.83,27.33-16.83s22.83-6,36.17-6c12.44,0,25.44,1.72,39,5.17,13.55,3.45,26.55,8.5,39,15.16l-26,51c-7.12-5.77-14.23-10.05-21.34-12.83s-14-4.17-20.66-4.17c-8.45,0-15.34,2-20.67,6s-8,9.23-8,15.67c0,4.45,1.33,8.12,4,11,2.67,2.89,6.17,5.39,10.5,7.5,4.33,2.12,9.22,3.95,14.67,5.5,5.44,1.56,10.83,3.22,16.16,5,21.34,7.12,36.95,16.62,46.84,28.5,9.88,11.89,14.83,27.39,14.83,46.5,0,12.89-2.17,24.56-6.5,35-4.33,10.45-10.67,19.39-19,26.83-5.81,5.2-12.57,9.57-20.23,13.14h105.06V107.36h-53.67v-55.33h172.67v55.33h-53.67v192.64h34.95l94.39-247.97h71.33l94.39,247.97h53.61v-117.3l-91.67-130.67h78l46.67,68.67,46.33-68.67h78l-92,130.67v117.3h231.66V107.36h-53.66v-55.33h172.66v55.33h-53.66v192.64h121.04c-9.62-4.25-17.86-9.79-24.71-16.64-18-18-27-46.55-27-85.66V52.03h65.33v136.67c0,7.33.28,14.83.84,22.5.55,7.66,2.22,14.61,5,20.83,2.77,6.22,7.16,11.28,13.16,15.17s14.45,5.83,25.34,5.83,19.27-1.94,25.16-5.83,10.28-8.95,13.17-15.17,4.61-13.17,5.17-20.83c.55-7.67.83-15.17.83-22.5V52.03h65v145.67c0,39.11-8.95,67.66-26.83,85.66-6.81,6.85-15.02,12.39-24.62,16.64h90.78V52.03h65.33l120.67,153.67V52.03h65v247.97h39.33V52.03h143v55.33h-77.67v42h73.34v55.34h-73.34v43.33h77.67v51.97h33.66V52.03h96.67c17.11,0,33.17,3.45,48.17,10.33,15,6.89,28.11,16.06,39.33,27.5,11.22,11.45,20.05,24.79,26.5,40,6.44,15.23,9.67,31.17,9.67,47.84s-3.17,32.28-9.5,47.5c-6.34,15.22-15.12,28.61-26.34,40.16-11.22,11.56-24.33,20.79-39.33,27.67-6.44,2.96-13.1,5.28-19.97,6.97h350.48V0H0Zm790.34,259.7h-93.33l-13.84,40.3h121.01l-13.84-40.3h0Z" />
</svg>
